<?xml version="1.0" encoding="utf-8"?>
<!-- Generator: Adobe Illustrator 23.0.1, SVG Export Plug-In . SVG Version: 6.00 Build 0)  -->
<svg version="1.1" id="图层_1" xmlns="http://www.w3.org/2000/svg" xmlns:xlink="http://www.w3.org/1999/xlink" x="0px" y="0px"
	 viewBox="0 0 50 50" style="enable-background:new 0 0 50 50;" xml:space="preserve">
<style type="text/css">
	.st0{enable-background:new    ;}
</style>
<title>Group 14</title>
<desc>Created with Sketch.</desc>
<g class="st0">
	<g>
		<path d="M30.8,13.8c1.3,1.2,2,2.9,2,5.1c0,1.6-0.5,3-1.4,4.2c-0.4,0.4-1.3,1.4-2.9,2.8c-0.8,0.7-1.3,1.3-1.7,2
			c-0.5,0.8-0.7,1.7-0.7,2.6v0.8h-2.9v-0.8c0-1.2,0.2-2.2,0.6-3.1c0.5-1.1,1.7-2.4,3.6-4.2c0.6-0.6,1-1,1.2-1.3
			c0.7-0.9,1.1-1.8,1.1-2.8c0-1.4-0.4-2.6-1.2-3.3c-0.8-0.9-2-1.3-3.5-1.3c-1.8,0-3.1,0.6-4,1.8c-0.8,1-1.2,2.4-1.2,4.1h-2.8
			c0-2.5,0.7-4.5,2.1-6c1.4-1.6,3.5-2.4,6-2.4C27.6,11.9,29.4,12.5,30.8,13.8z M26.4,34.4c0.4,0.4,0.6,0.9,0.6,1.5
			c0,0.6-0.2,1.2-0.6,1.5c-0.4,0.4-0.9,0.6-1.5,0.6s-1.1-0.2-1.5-0.6c-0.4-0.4-0.6-0.9-0.6-1.5c0-0.6,0.2-1.1,0.6-1.5
			c0.4-0.4,0.9-0.6,1.5-0.6S25.9,34,26.4,34.4z"/>
	</g>
</g>
<g id="Oval-4">
	<path d="M25,50C11.2,50,0,38.8,0,25S11.2,0,25,0s25,11.2,25,25S38.8,50,25,50z M25,2C12.3,2,2,12.3,2,25c0,12.7,10.3,23,23,23
		c12.7,0,23-10.3,23-23C48,12.3,37.7,2,25,2z"/>
</g>
</svg>
