<?xml version="1.0" encoding="UTF-8"?>
<svg width="46px" height="46px" viewBox="0 0 46 46" version="1.1" xmlns="http://www.w3.org/2000/svg" xmlns:xlink="http://www.w3.org/1999/xlink">
    <!-- Generator: Sketch 50.2 (55047) - http://www.bohemiancoding.com/sketch -->
    <title>Fill 1</title>
    <desc>Created with Sketch.</desc>
    <defs></defs>
    <g id="Page-1" stroke="none" stroke-width="1" fill="none" fill-rule="evenodd">
        <g id="首页0712" transform="translate(-786.000000, -4403.000000)" stroke="#000000" stroke-width="2">
            <path d="M804.044349,4417.12519 L799.367729,4421.88643 C801.801073,4427.28965 806.967335,4433.30904 812.957226,4435.33348 L817.001068,4431.30648 C817.001068,4431.30648 826.583486,4432.97906 828.73603,4434.0206 C830.606209,4434.92453 831.223344,4436.93255 830.930811,4439.40818 C830.622634,4442.06991 827.131008,4447.93525 820.848583,4447.99937 C814.566941,4448.06271 805.314601,4443.32962 798.687237,4436.35313 C792.059874,4429.36649 786.150546,4420.51491 787.100888,4413.0028 C788.041844,4405.48443 794.589426,4404.14105 796.226517,4404.01829 C797.884726,4403.89631 799.197215,4404.37955 800.196834,4405.61736 C801.482728,4407.21643 804.044349,4417.12519 804.044349,4417.12519" id="Fill-1"></path>
        </g>
    </g>
</svg>