<?xml version="1.0" encoding="UTF-8"?>
<svg width="38px" height="45px" viewBox="0 0 38 45" version="1.1" xmlns="http://www.w3.org/2000/svg" xmlns:xlink="http://www.w3.org/1999/xlink">
    <!-- Generator: Sketch 50.2 (55047) - http://www.bohemiancoding.com/sketch -->
    <title>Fill 1</title>
    <desc>Created with Sketch.</desc>
    <defs></defs>
    <g id="Page-1" stroke="none" stroke-width="1" fill="none" fill-rule="evenodd">
        <g id="首页0712" transform="translate(-488.000000, -4404.000000)" stroke="#000000" stroke-width="2">
            <path d="M524.890417,4436.58126 C524.632661,4433.32931 522.925423,4429.70869 522.224179,4427.89003 L520.419171,4423.20878 C520.361756,4421.26139 520.935194,4416.7817 517.925383,4411.17769 C514.915982,4405.57377 508.86847,4405.0689 507.750301,4405.01115 C506.632438,4404.9535 499.639106,4404.89616 496.199498,4410.99705 C492.759889,4417.09784 493.686503,4423.20878 493.686503,4423.20878 L491.764213,4427.92521 C491.764213,4427.92562 490.868247,4430.07725 490.094468,4432.6958 C489.320689,4435.31466 488.546502,4439.4301 489.320689,4440.26475 C490.094468,4441.09941 492.903121,4436.43694 493.161388,4436.0054 C493.161388,4436.0054 493.362137,4438.2357 493.892054,4439.40127 L493.958256,4439.54713 L493.985431,4439.60642 L494.016182,4439.67412 L494.040905,4439.72777 L494.077275,4439.80675 L494.093621,4439.84245 C494.145111,4439.95303 494.197316,4440.06278 494.250441,4440.17254 L494.265969,4440.20423 C494.284767,4440.24311 494.30428,4440.2824 494.323895,4440.32291 L494.335848,4440.34651 C494.898968,4441.47966 495.857049,4443.1221 497.396332,4444.484 L497.397558,4444.48564 L497.300912,4444.51723 C496.428955,4444.80567 494.710581,4445.43723 493.980629,4446.14357 C493.840156,4446.27948 493.736461,4446.41806 493.68211,4446.55756 C493.242811,4447.68949 494.026194,4447.82376 495.363808,4447.90069 C496.701524,4447.97711 503.121827,4448.14985 506.198248,4447.71831 C506.231757,4447.7139 506.262508,4447.70908 506.294076,4447.70436 C506.515564,4447.71185 506.728982,4447.71585 506.933716,4447.71749 L506.946077,4447.71749 C507.014322,4447.7179 507.082158,4447.71831 507.148461,4447.71831 C507.189122,4447.71831 507.231417,4447.7179 507.27453,4447.7179 L507.291693,4447.71749 C507.440544,4447.71677 507.589395,4447.71349 507.738246,4447.70908 C507.759393,4447.71185 507.779826,4447.71513 507.801689,4447.71831 C510.878211,4448.14985 517.298412,4447.97711 518.636128,4447.90069 C519.973845,4447.82376 520.757227,4447.68949 520.317826,4446.55756 C519.966285,4445.65192 517.524702,4444.78331 516.56182,4444.47189 C516.786475,4444.27156 517.003571,4444.06251 517.212289,4443.84495 L517.231393,4443.82485 C517.301273,4443.7515 517.370334,4443.67786 517.43817,4443.60287 C520.906486,4439.77557 520.61992,4437.35817 520.763255,4435.97658 C520.763255,4435.97658 523.687249,4440.207 524.317387,4440.35092 C524.947832,4440.49473 525.148582,4439.83322 524.890417,4436.58126" id="Fill-1"></path>
        </g>
    </g>
</svg>