<?xml version="1.0" encoding="UTF-8"?>
<svg width="56px" height="45px" viewBox="0 0 56 45" version="1.1" xmlns="http://www.w3.org/2000/svg" xmlns:xlink="http://www.w3.org/1999/xlink">
    <!-- Generator: Sketch 50.2 (55047) - http://www.bohemiancoding.com/sketch -->
    <title>Group</title>
    <desc>Created with Sketch.</desc>
    <defs></defs>
    <g id="Page-1" stroke="none" stroke-width="1" fill="none" fill-rule="evenodd">
        <g id="首页0712" transform="translate(-1083.000000, -4404.000000)">
            <g id="Group" transform="translate(1084.000000, 4405.000000)">
                <path d="M22.5738474,32.0146105 C22.5397421,32.1481895 21.8675842,32.3769789 21.3176368,32.4153474 C20.7335842,32.4650842 20.1395842,32.4906632 19.5512684,32.4906632 C17.5660579,32.4906632 15.8849526,32.1467684 13.9423737,31.7460316 L12.8126368,31.5172421 C12.6193737,31.4760316 12.4133211,31.5030316 12.2356895,31.5954 L7.27195263,34.0794 L8.56226842,30.2041895 C8.68874211,29.8247684 8.54947895,29.4098211 8.22405789,29.1824526 C3.23758421,25.7065579 0.710952632,21.4732421 0.710952632,16.5990316 C0.710952632,7.83966316 9.16195263,0.710242105 19.5498474,0.710242105 C28.7326895,0.710242105 36.8639526,6.94297895 38.5407947,14.3750842" id="Stroke-1" stroke="#000000" stroke-width="2" stroke-linecap="round" stroke-linejoin="round"></path>
                <path d="M46.9635158,38.4266842 C46.6636737,38.6540526 46.5357789,39.0434211 46.6437789,39.4029474 L47.4949895,42.2322632 L44.0034632,40.3223684 C43.8698842,40.2484737 43.7206737,40.2115263 43.5714632,40.2115263 C43.4975684,40.2115263 43.4236737,40.2200526 43.3512,40.2399474 C41.4796737,40.7131579 39.5413579,41.2005789 37.6556211,41.2005789 C28.8905684,41.2005789 21.7625684,35.1781579 21.7625684,27.7758947 C21.7625684,20.3736316 28.8905684,14.3526316 37.6556211,14.3526316 C46.2515684,14.3526316 53.5145684,20.5001053 53.5145684,27.7758947 C53.5145684,31.4677895 51.1897263,35.2492105 46.9635158,38.4266842 Z" id="Stroke-3" stroke="#000000" stroke-width="2" stroke-linecap="round" stroke-linejoin="round"></path>
                <rect id="Rectangle-13" fill="#000000" x="12" y="11" width="4" height="4" rx="2"></rect>
                <rect id="Rectangle-13-Copy-2" fill="#000000" x="31" y="23" width="3" height="3" rx="1.5"></rect>
                <rect id="Rectangle-13-Copy" fill="#000000" x="23" y="11" width="4" height="4" rx="2"></rect>
                <rect id="Rectangle-13-Copy-3" fill="#000000" x="41" y="23" width="3" height="3" rx="1.5"></rect>
            </g>
        </g>
    </g>
</svg>